<svg width="34" height="24" viewBox="0 0 34 24" fill="none" xmlns="http://www.w3.org/2000/svg">
<path fill-rule="evenodd" clip-rule="evenodd" d="M0.853927 23.7604H0.747331C0.747331 23.7206 0.720634 23.6607 0.720634 23.6406C0.720634 23.6208 0.720634 23.581 0.640542 23.581H0.480358V23.7604H0.400266V23.3416H0.640542C0.747331 23.3416 0.82723 23.3617 0.82723 23.4412C0.82723 23.5011 0.800533 23.5212 0.774029 23.5408C0.800726 23.5609 0.82723 23.5809 0.82723 23.6208V23.7005C0.82723 23.7206 0.82723 23.7206 0.853927 23.7206V23.7604ZM0.747331 23.4613C0.747331 23.4014 0.693937 23.4014 0.667239 23.4014H0.480358V23.5212H0.640542C0.693937 23.5212 0.747331 23.5011 0.747331 23.4613ZM1.20099 23.541C1.20099 23.3018 0.934213 23.1021 0.587148 23.1021C0.266973 23.1021 0 23.3018 0 23.541C0 23.8003 0.266973 24 0.587148 24C0.934019 23.9999 1.20099 23.8003 1.20099 23.541ZM1.1209 23.541C1.1209 23.7605 0.880818 23.92 0.587148 23.92C0.293477 23.92 0.080092 23.7604 0.080092 23.541C0.080092 23.3416 0.293671 23.1619 0.587148 23.1619C0.880625 23.1619 1.1209 23.3416 1.1209 23.541ZM34 15.4813C34 16.0799 33.4929 16.3588 32.5854 16.3588H30.8511V15.7603H32.5854C32.7456 15.7603 32.8791 15.7405 32.9327 15.7007C32.9859 15.6606 33.0393 15.6008 33.0393 15.5211C33.0393 15.4411 32.9861 15.3614 32.9327 15.3216C32.8791 15.2816 32.7725 15.2618 32.6123 15.2618C31.7853 15.2417 30.7443 15.2816 30.7443 14.4039C30.7443 14.0048 31.0912 13.5658 32.0252 13.5658H33.8131V14.1644H32.1585C31.9987 14.1644 31.8917 14.1644 31.8116 14.2042C31.7315 14.2641 31.6783 14.3239 31.6783 14.4237C31.6783 14.5235 31.7584 14.5834 31.865 14.6234C31.972 14.6432 32.0788 14.6632 32.2122 14.6632H32.6924C33.1995 14.6632 33.5198 14.7429 33.7334 14.8827C33.8932 15.0223 34 15.202 34 15.4813ZM30.237 14.8827C30.0235 14.7429 29.7031 14.6632 29.196 14.6632H28.7159C28.5826 14.6632 28.4756 14.6431 28.369 14.6234C28.262 14.5834 28.1823 14.5235 28.1823 14.4237C28.1823 14.3239 28.2088 14.2641 28.3156 14.2042C28.3957 14.1644 28.5023 14.1644 28.6625 14.1644H30.3171V13.5658H28.5292C27.5683 13.5658 27.2479 14.0048 27.2479 14.4039C27.2479 15.2814 28.2889 15.2417 29.1163 15.2618C29.2761 15.2618 29.3831 15.2816 29.4363 15.3216C29.4895 15.3614 29.5433 15.4411 29.5433 15.5211C29.5433 15.6008 29.4897 15.6606 29.4363 15.7007C29.3562 15.7405 29.2496 15.7603 29.0894 15.7603H27.3547V16.3588H29.0894C29.9966 16.3588 30.5038 16.0797 30.5038 15.4813C30.5038 15.202 30.3972 15.0223 30.237 14.8827ZM26.8209 15.7805H24.713V15.2219H26.7677V14.6635H24.713V14.1446H26.8209V13.5661H23.8322V16.359H26.8209V15.7805ZM22.8713 13.7058C22.5776 13.5861 22.2307 13.566 21.7771 13.566H19.7224V16.3588H20.6295V15.3415H21.5904C21.9104 15.3415 22.0974 15.3616 22.2309 15.4612C22.3911 15.6008 22.3911 15.8402 22.3911 16.0199V16.3588H23.2715V15.8201C23.2715 15.5608 23.245 15.4411 23.1383 15.3015C23.0582 15.2216 22.8984 15.1219 22.6848 15.0621C22.9247 15.0025 23.3253 14.763 23.3253 14.3239C23.3251 14.0049 23.165 13.8253 22.8713 13.7058ZM17.8007 13.566H14.9451L13.7975 14.4837L12.7033 13.566H9.1005V16.3588H12.6501L13.7977 15.4411L14.8919 16.3588H16.6266V15.4214H17.7475C18.5214 15.4214 19.2956 15.2618 19.2956 14.4837C19.2954 13.7256 18.4947 13.566 17.8007 13.566ZM22.1506 14.7232C22.0174 14.763 21.8839 14.763 21.7237 14.763L20.6295 14.7831V14.1445H21.7237C21.8839 14.1445 22.0441 14.1445 22.1506 14.2043C22.2576 14.2444 22.3373 14.3241 22.3373 14.4438C22.3373 14.5636 22.2576 14.6633 22.1506 14.7232ZM17.8007 14.8628H16.6264V14.1445H17.8007C18.1211 14.1445 18.3345 14.2444 18.3345 14.4837C18.3345 14.7232 18.1209 14.8628 17.8007 14.8628ZM14.3579 14.9624L15.7456 13.8653V16.1196L14.3579 14.9624ZM12.1962 15.7805H9.98112V15.2219H11.9559V14.6635H9.98112V14.1446H12.2229L13.2103 14.9626L12.1962 15.7805ZM31.5179 11.551H30.237L28.5557 9.45625V11.551H26.7412L26.394 10.9325H24.5259L24.1791 11.551H23.1381C22.7111 11.551 22.1506 11.4712 21.8307 11.2317C21.537 10.9924 21.3768 10.6732 21.3768 10.1744C21.3768 9.75546 21.4569 9.37642 21.857 9.07721C22.1238 8.85768 22.6043 8.75804 23.218 8.75804H24.0719V9.35661H23.218C22.898 9.35661 22.7109 9.39652 22.5242 9.51627C22.364 9.63601 22.2839 9.85539 22.2839 10.1546C22.2839 10.4538 22.364 10.6734 22.5242 10.8131C22.6575 10.9127 22.898 10.9526 23.1379 10.9526H23.5383L24.8192 8.75818H26.1537L27.6482 11.3915V8.75804H29.036L30.6106 10.6932V8.75804H31.5177L31.5179 11.551ZM20.9232 8.75804H20.016V11.551H20.9232V8.75804ZM19.0282 8.87778C18.7346 8.75804 18.4146 8.75804 17.9609 8.75804H15.9058V11.551H16.7864V10.5335H17.7471C18.0675 10.5335 18.2811 10.5535 18.4144 10.6532C18.5746 10.7929 18.5477 11.0324 18.5477 11.1919V11.551H19.4548V10.9924C19.4548 10.753 19.4283 10.6333 19.295 10.4936C19.2149 10.4138 19.0547 10.314 18.868 10.2542C19.1079 10.1744 19.5086 9.95504 19.5086 9.51612C19.5088 9.19695 19.3217 9.01734 19.0282 8.87778ZM15.2653 10.9726H13.1836V10.4139H15.2386V9.83544H13.1836V9.33665H15.2653V8.75818H12.2763V11.5512H15.2653V10.9726ZM11.6091 8.75804H10.1413L9.0471 10.6532L7.87281 8.75804H6.43173V11.3914L4.91057 8.75804H3.57628L1.97502 11.551H2.93574L3.28261 10.9325H5.15065L5.49752 11.551H7.31236V9.35661L8.61994 11.551H9.39378L10.7016 9.35661V11.551H11.6089L11.6091 8.75804ZM26.074 10.3341L25.46 9.23687L24.8463 10.3341H26.074ZM18.3345 9.89531C18.2012 9.95518 18.0677 9.95518 17.8808 9.95518H16.7864V9.3368H17.8806C18.0408 9.3368 18.2273 9.3368 18.3343 9.37671C18.4409 9.43658 18.4945 9.51641 18.4945 9.63601C18.4945 9.75561 18.4411 9.85525 18.3345 9.89531ZM3.60278 10.3341L4.21663 9.23687L4.83047 10.3341H3.60278ZM33.7866 0H1.94813V10.0548L3.04233 8.19952H5.36403L5.6844 8.6584V8.19952H8.40656L9.0204 9.19695L9.60755 8.19952H18.2811C18.6812 8.19952 19.028 8.2594 19.2952 8.41891V8.19952H21.6703V8.41891C22.0704 8.25925 22.5774 8.19952 23.1648 8.19952H26.6074L26.9277 8.6584V8.19952H29.463L29.8368 8.6584V8.19952H32.3185V12.1097H29.8101L29.3299 11.5113V12.1097H26.2073L25.8604 11.4713H25.0862L24.7393 12.1097H23.1116C22.471 12.1097 21.9905 11.9899 21.6705 11.8703V12.1097H17.8007V11.2119C17.8007 11.0922 17.774 11.0722 17.6672 11.0722H17.5339V12.1095H10.0612V11.6108L9.79443 12.1095H8.21987L7.95309 11.6307V12.1095H4.93726L4.61709 11.4712H3.84306L3.49619 12.1095H1.94813V23.9001H33.7866V16.7379C33.4397 16.8576 32.9592 16.9175 32.4788 16.9175H30.1569V16.678C29.8902 16.8378 29.4096 16.9175 28.9561 16.9175H21.6436V16.0199C21.6436 15.9001 21.6171 15.9001 21.4834 15.9001H21.3501V16.9175H18.9481V15.8602C18.5481 15.9998 18.0942 15.9998 17.6939 15.9998H17.427V16.9175H14.4914L13.7977 16.3189L13.0238 16.9175H8.29977V13.0075H13.1035L13.7975 13.6058L14.5448 13.0075H17.774C18.1474 13.0075 18.7614 13.0472 19.0282 13.2467V13.0075H21.9104C22.204 13.0075 22.7647 13.0472 23.1381 13.2467V13.0075H27.4882V13.2468C27.7285 13.0872 28.1823 13.0076 28.5824 13.0076H31.0109V13.2468C31.278 13.1073 31.6514 13.0076 32.132 13.0076H33.7866V0Z" fill="#CCCCCC"/>
</svg>
